<svg height="512pt" viewBox="0 -4 512 512" width="512pt" xmlns="http://www.w3.org/2000/svg"><path d="m451.253906 286.371094v121.492187c0 4.792969-3.886718 8.679688-8.675781 8.679688h-26.035156v-130.171875c.027343-9.570313 7.78125-17.324219 17.355469-17.355469 9.554687.070313 17.285156 7.800781 17.355468 17.355469zm0 0" fill="#f29c1f"/><path d="m234.304688 130.167969c0 71.855469-50.503907 130.171875-112.8125 130.171875-40.398438-1.117188-76.921876-24.3125-95.109376-60.398438-11.730468-21.378906-17.824218-45.390625-17.703124-69.773437 0-71.851563 50.503906-130.167969 112.8125-130.167969 57.273437 0 104.570312 49.289062 111.773437 113.074219.699219 5.671875 1.046875 11.378906 1.039063 17.09375zm0 0" fill="#67b9cc"/><path d="m234.304688 130.167969c0 71.855469-50.503907 130.171875-112.8125 130.171875-40.398438-1.117188-76.921876-24.3125-95.109376-60.398438 27.855469-44.171875 90.941407-112.292968 206.882813-86.867187.699219 5.671875 1.046875 11.378906 1.039063 17.09375zm0 0" fill="#2fa8cc"/><g fill="#bdc3c7"><path d="m163.867188 503.320312h-84.75c-2.46875 0-4.820313-1.046874-6.464844-2.886718-1.648438-1.839844-2.433594-4.292969-2.160156-6.742188l16.289062-146.574218h69.421875l16.289063 146.574218c.269531 2.449219-.515626 4.902344-2.160157 6.742188-1.648437 1.839844-4 2.886718-6.464843 2.886718zm0 0"/><path d="m95.457031 269.015625c-4.792969 0-8.675781-3.882813-8.675781-8.675781v-52.070313c0-14.375 11.652344-26.03125 26.03125-26.03125h8.679688c6.902343 0 13.527343 2.742188 18.40625 7.625 4.882812 4.882813 7.628906 11.503907 7.628906 18.40625 0 4.792969-3.886719 8.679688-8.679688 8.679688-4.792968 0-8.679687-3.886719-8.679687-8.679688s-3.882813-8.675781-8.675781-8.675781h-8.679688c-4.792969 0-8.675781 3.882812-8.675781 8.675781v52.070313c0 2.300781-.914063 4.507812-2.542969 6.136718-1.628906 1.625-3.835938 2.539063-6.136719 2.539063zm0 0"/><path d="m503.320312 312.40625h-86.777343c-4.792969 0-8.679688-3.882812-8.679688-8.675781s3.886719-8.679688 8.679688-8.679688h86.777343c4.792969 0 8.679688 3.886719 8.679688 8.679688s-3.886719 8.675781-8.679688 8.675781zm0 0"/><path d="m329.761719 312.40625h-52.066407c-4.792968 0-8.679687-3.882812-8.679687-8.675781s3.886719-8.679688 8.679687-8.679688h52.066407c4.792969 0 8.679687 3.886719 8.679687 8.679688s-3.886718 8.675781-8.679687 8.675781zm0 0"/></g><path d="m433.898438 269.015625c-9.574219.03125-17.328126 7.785156-17.355469 17.355469v147.527344c0 4.792968-3.886719 8.679687-8.679688 8.679687h-69.421875c-4.792968 0-8.679687-3.886719-8.679687-8.679687v-147.527344c.03125-9.570313 7.785156-17.324219 17.355469-17.355469zm0 0" fill="#f0c419"/><path d="m503.320312 8.679688v164.878906h-104.132812v-173.558594h95.457031c4.792969 0 8.675781 3.886719 8.675781 8.679688zm0 0" fill="#b0d3f0"/><path d="m399.1875 0v173.558594h-104.136719v-164.878906c0-4.792969 3.886719-8.679688 8.679688-8.679688zm0 0" fill="#90bae1"/><path d="m503.320312 173.558594v43.390625c0 4.792969-3.882812 8.679687-8.675781 8.679687h-190.914062c-4.792969 0-8.679688-3.886718-8.679688-8.679687v-43.390625zm0 0" fill="#35495e"/><path d="m373.152344 95.457031h-8.679688c-4.789062 0-8.675781-3.882812-8.675781-8.675781s3.886719-8.679688 8.675781-8.679688h8.679688c4.792968 0 8.679687 3.886719 8.679687 8.679688s-3.886719 8.675781-8.679687 8.675781zm0 0" fill="#35495e"/><path d="m433.898438 95.457031h-8.679688c-4.792969 0-8.675781-3.882812-8.675781-8.675781s3.882812-8.679688 8.675781-8.679688h8.679688c4.792968 0 8.679687 3.886719 8.679687 8.679688s-3.886719 8.675781-8.679687 8.675781zm0 0" fill="#35495e"/><path d="m242.984375 260.339844v8.675781c0 43.136719-34.96875 78.101563-78.101563 78.101563h-86.78125c-29.664062-.007813-56.761718-16.816407-69.945312-43.386719-2.730469-5.371094-4.800781-11.054688-6.160156-16.921875-1.324219-5.839844-1.996094-11.804688-1.996094-17.792969v-8.675781zm0 0" fill="#ecf0f1"/><path d="m60.746094 295.050781c0 4.792969-3.886719 8.679688-8.679688 8.679688h-43.910156c-2.730469-5.371094-4.800781-11.054688-6.160156-16.921875.808594-.277344 1.660156-.425782 2.515625-.4375h47.554687c4.792969 0 8.679688 3.886718 8.679688 8.679687zm0 0" fill="#e6e7e8"/><path d="m95.457031 303.730469h-8.675781c-4.792969 0-8.679688-3.886719-8.679688-8.679688s3.886719-8.679687 8.679688-8.679687h8.675781c4.792969 0 8.679688 3.886718 8.679688 8.679687s-3.886719 8.679688-8.679688 8.679688zm0 0" fill="#e6e7e8"/><path d="m295.050781 329.761719c-4.792969 0-8.679687-3.882813-8.679687-8.675781v-34.714844c0-4.789063 3.886718-8.675782 8.679687-8.675782s8.679688 3.886719 8.679688 8.675782v34.714844c0 4.792968-3.886719 8.675781-8.679688 8.675781zm0 0" fill="#95a5a5"/><path d="m485.964844 329.761719c-4.792969 0-8.675782-3.882813-8.675782-8.675781v-34.714844c0-4.789063 3.882813-8.675782 8.675782-8.675782 4.792968 0 8.679687 3.886719 8.679687 8.675782v34.714844c0 4.792968-3.886719 8.675781-8.679687 8.675781zm0 0" fill="#95a5a5"/></svg>