<svg height="512pt" viewBox="-156 0 511 512" width="512pt" xmlns="http://www.w3.org/2000/svg"><path d="m166.714844 0h-133.292969c-13.09375 0-23.707031 10.613281-23.707031 23.710938v168.535156c0 12.703125 7.761718 24.113281 19.578125 28.777344l21.382812 8.4375c9.25 3.652343 15.328125 12.585937 15.328125 22.53125v5.964843h68.128906v-5.964843c0-9.945313 6.082032-18.878907 15.332032-22.53125l21.382812-8.4375c11.8125-4.664063 19.578125-16.074219 19.578125-28.777344v-168.535156c0-13.097657-10.617187-23.710938-23.710937-23.710938zm0 0" fill="#d4e6f1"/><path d="m166.714844 0h-16.582032c.191407 1.210938.292969 2.445312.292969 3.710938v168.535156c0 12.703125-7.765625 24.113281-19.578125 28.777344l-21.382812 8.4375c-9.25 3.652343-15.332032 12.585937-15.332032 22.53125 0 3.292968-2.667968 5.964843-5.964843 5.964843h-26.660157c2.855469 4.015625 4.496094 8.886719 4.496094 14.035157v5.964843h68.128906v-5.964843c0-9.945313 6.082032-18.878907 15.332032-22.53125l21.382812-8.4375c11.8125-4.664063 19.578125-16.074219 19.578125-28.777344v-168.535156c0-13.097657-10.617187-23.710938-23.710937-23.710938zm0 0" fill="#a9cce3"/><path d="m176.632812 491.628906h-153.125c-7.617187 0-13.792968-6.175781-13.792968-13.792968v-206.089844c0-7.613282 6.175781-13.789063 13.792968-13.789063h153.125c7.617188 0 13.792969 6.175781 13.792969 13.789063v206.089844c0 7.617187-6.175781 13.792968-13.792969 13.792968zm0 0" fill="#dadee4"/><path d="m176.632812 257.957031h-26.207031v174.144531c0 21.828126-17.699219 39.527344-39.527343 39.527344h-101.183594v6.207032c0 7.617187 6.171875 13.792968 13.789062 13.792968h153.128906c7.613282 0 13.789063-6.175781 13.789063-13.792968v-206.089844c.003906-7.613282-6.171875-13.789063-13.789063-13.789063zm0 0" fill="#b4bcc9"/><path d="m41.214844 257.957031h117.707031v151.449219h-117.707031zm0 0" fill="#5f6c75"/><path d="m118.921875 257.957031v99.726563c0 17.519531-14.199219 31.722656-31.71875 31.722656h-45.988281v20h117.710937v-151.453125h-40.003906zm0 0" fill="#4e5a61"/><path d="m41.214844 257.957031h117.707031v53.605469h-117.707031zm0 0" fill="#aedb81"/><path d="m118.921875 257.957031v9.605469c0 13.253906-10.742187 24-23.996094 24h-53.710937v20h117.707031v-53.605469zm0 0" fill="#9ed369"/><path d="m163.714844 409.40625h-127.292969c-2.351563 0-4.261719 1.90625-4.261719 4.257812v17.511719c0 7.5 6.082032 13.582031 13.582032 13.582031h108.652343c7.503907 0 13.582031-6.082031 13.582031-13.582031v-17.511719c0-2.351562-1.90625-4.257812-4.261718-4.257812zm0 0" fill="#aedb81"/><path d="m163.714844 409.40625h-35.738282v6.769531c0 7.5-6.082031 13.582031-13.582031 13.582031h-82.234375v1.417969c0 7.5 6.082032 13.582031 13.582032 13.582031h108.652343c7.5 0 13.582031-6.082031 13.582031-13.582031v-17.511719c0-2.351562-1.90625-4.257812-4.261718-4.257812zm0 0" fill="#9ed369"/><path d="m80.671875 287.0625h-10.097656c-4.886719 0-8.851563 3.960938-8.851563 8.851562v15.648438h27.804688v-15.648438c0-4.890624-3.964844-8.851562-8.855469-8.851562zm0 0" fill="#81b8fd"/><path d="m89.527344 295.914062c0-1.582031-.421875-3.066406-1.148438-4.351562h-25.507812c-.730469 1.285156-1.148438 2.769531-1.148438 4.351562v15.648438h27.804688zm0 0" fill="#62a6fd"/><path d="m119.464844 287.0625h10.097656c4.890625 0 8.855469 3.960938 8.855469 8.851562v15.648438h-27.808594v-15.648438c0-4.890624 3.964844-8.851562 8.855469-8.851562zm0 0" fill="#f2385a"/><path d="m80.875 337.164062h-10.503906c-1.992188 0-3.613282-1.617187-3.613282-3.613281v-21.992187h17.730469v21.992187c0 1.996094-1.617187 3.613281-3.613281 3.613281zm0 0" fill="#dadee4"/><path d="m129.765625 337.164062h-10.503906c-1.996094 0-3.613281-1.617187-3.613281-3.613281v-21.992187h17.730468v21.992187c0 1.996094-1.617187 3.613281-3.613281 3.613281zm0 0" fill="#dadee4"/><path d="m74.488281 311.5625v16.988281c0 1.996094-1.617187 3.613281-3.613281 3.613281h-4.117188v1.386719c0 1.996094 1.617188 3.613281 3.613282 3.613281h10.503906c1.996094 0 3.617188-1.617187 3.617188-3.613281v-21.988281zm0 0" fill="#b4bcc9"/><path d="m123.378906 311.5625v16.988281c0 1.996094-1.617187 3.613281-3.613281 3.613281h-4.117187v1.386719c0 1.996094 1.617187 3.613281 3.613281 3.613281h10.503906c1.996094 0 3.613281-1.617187 3.613281-3.613281v-21.988281zm0 0" fill="#b4bcc9"/><path d="m130.1875 130.273438c-30.121094 0-30.121094 12.117187-60.238281 12.117187-11.972657 0-19.1875-1.914063-25.425781-4.222656-4.636719-1.714844-9.566407 1.679687-9.566407 6.621093v47.457032c0 2.335937 1.429688 4.4375 3.605469 5.292968l21.378906 8.441407c17.429688 6.875 27.445313 23.523437 27.445313 40.804687v11.167969h25.367187v-11.167969c0-17.195312 9.863282-33.105468 25.601563-40.035156 1.316406-.578125.238281-.136719 23.226562-9.210938 2.1875-.863281 3.601563-2.9375 3.601563-5.292968v-43.683594c0-6.386719-4.027344-12.054688-10.03125-14.238281-6.136719-2.230469-13.289063-4.050781-24.964844-4.050781zm0 0" fill="#81b8fd"/><path d="m138.355469 206.75c1.3125-.578125.238281-.136719 23.222656-9.210938 2.191406-.863281 3.601563-2.941406 3.601563-5.292968v-43.683594c0-6.386719-4.023438-12.054688-10.027344-14.238281-1.5-.542969-3.058594-1.0625-4.726563-1.539063v39.460938c0 12.703125-7.765625 24.113281-19.582031 28.777344l-21.378906 8.4375c-9.253906 3.652343-15.332032 12.585937-15.332032 22.53125 0 3.292968-2.667968 5.964843-5.964843 5.964843h-1.667969c.578125 2.878907.886719 5.832031.886719 8.828125v11.171875h25.363281v-11.171875c.003906-17.195312 9.867188-33.105468 25.605469-40.035156zm0 0" fill="#62a6fd"/><path d="m39.382812 512h-7.519531c-3.503906 0-6.445312-2.640625-6.820312-6.125l-1.535157-14.246094h24.230469l-1.535156 14.246094c-.375 3.484375-3.316406 6.125-6.820313 6.125zm0 0" fill="#5f6c75"/><path d="m160.757812 512h7.515626c3.503906 0 6.445312-2.640625 6.824218-6.125l1.535156-14.246094h-24.234374l1.535156 14.246094c.375 3.484375 3.320312 6.125 6.824218 6.125zm0 0" fill="#5f6c75"/><path d="m131.769531 476.226562h-63.402343c-4.140626 0-7.5-3.359374-7.5-7.5 0-4.144531 3.359374-7.5 7.5-7.5h63.402343c4.144531 0 7.5 3.355469 7.5 7.5 0 4.140626-3.355469 7.5-7.5 7.5zm0 0" fill="#b4bcc9"/><path d="m61.449219 471.628906c1.136719 2.699219 3.804687 4.597656 6.917969 4.597656h63.402343c4.140625 0 7.5-3.359374 7.5-7.5 0-2.546874-1.269531-4.789062-3.207031-6.148437-6.835938 5.652344-15.605469 9.046875-25.164062 9.046875h-49.449219zm0 0" fill="#8f9bae"/><path d="m192.136719 41.308594h-184.136719c-4.140625 0-7.5-3.359375-7.5-7.5 0-4.144532 3.359375-7.5 7.5-7.5h184.136719c4.144531 0 7.5 3.355468 7.5 7.5 0 4.140625-3.355469 7.5-7.5 7.5zm7.5 17.996094c0-4.144532-3.355469-7.5-7.5-7.5h-184.136719c-4.140625 0-7.5 3.355468-7.5 7.5 0 4.140624 3.359375 7.5 7.5 7.5h184.136719c4.144531 0 7.5-3.359376 7.5-7.5zm0 25.496093c0-4.144531-3.355469-7.5-7.5-7.5h-184.136719c-4.140625 0-7.5 3.355469-7.5 7.5 0 4.140625 3.359375 7.5 7.5 7.5h184.136719c4.144531 0 7.5-3.359375 7.5-7.5zm0 0" fill="#a9cce3"/><g fill="#a0cafe"><path d="m192.136719 41.308594c4.144531 0 7.5-3.359375 7.5-7.5 0-4.144532-3.355469-7.5-7.5-7.5h-41.710938v15zm0 0"/><path d="m199.636719 84.800781c0-4.144531-3.355469-7.5-7.5-7.5h-41.710938v15h41.710938c4.144531 0 7.5-3.359375 7.5-7.5zm0 0"/><path d="m199.636719 59.304688c0-4.144532-3.355469-7.5-7.5-7.5h-41.710938v15h41.710938c4.144531 0 7.5-3.359376 7.5-7.5zm0 0"/></g></svg>