<svg id="Layer_1" enable-background="new 0 0 62 62" height="512" viewBox="0 0 62 62" width="512" xmlns="http://www.w3.org/2000/svg"><g><path d="m2 15.5h55v26.527c-.927-.375-1.939-.582-3-.582-4.415 0-8 3.584-8 8 0 1.081.215 2.113.605 3.055h-40.605c-1.061 0-2.078-.422-2.828-1.172-.751-.75-1.172-1.767-1.172-2.828 0-9.571 0-33 0-33z" fill="#0faaeb"/><circle cx="54" cy="49.445" fill="#106cbf" r="8"/><circle cx="54" cy="49.445" fill="#0faaeb" r="2.945"/><path d="m43 5.5c0-.552.448-1 1-1h8c.552 0 1 .448 1 1v4h-10z" fill="#0faaeb"/><path d="m57 9.5c1.105 0 2 .895 2 2v4h-59v-4c0-1.105.895-2 2-2z" fill="#106cbf"/><path d="m18 52.5h-10s.557 2.782.839 4.196c.094.467.504.804.981.804h6.36c.477 0 .887-.337.981-.804.282-1.414.839-4.196.839-4.196z" fill="#106cbf"/><path d="m57 32.5v-17h-55v17h7.349l4.722-8.5v7.286h6.072l-.759 1.214z" fill="#a6d1f0"/><path d="m18 19.5h16v6h-16z" fill="#106cbf"/><path d="m14.071 24v7.286h6.072l-6.072 9.714v-6.072h-6.071z" fill="#e7bc2d"/><g fill="#106cbf"><path d="m32 39.5h-12c-.552 0-1-.448-1-1s.448-1 1-1h12c.552 0 1 .448 1 1s-.448 1-1 1z"/><path d="m32 43.5h-12c-.552 0-1-.448-1-1s.448-1 1-1h12c.552 0 1 .448 1 1s-.448 1-1 1z"/><path d="m32 47.5h-12c-.552 0-1-.448-1-1s.448-1 1-1h12c.552 0 1 .448 1 1s-.448 1-1 1z"/></g><circle cx="42" cy="22.5" fill="#0faaeb" r="2"/><circle cx="50" cy="22.5" fill="#0faaeb" r="2"/></g></svg>