<?xml version="1.0" encoding="iso-8859-1"?>
<!-- Generator: Adobe Illustrator 19.0.0, SVG Export Plug-In . SVG Version: 6.00 Build 0)  -->
<svg version="1.1" id="Capa_1" xmlns="http://www.w3.org/2000/svg" xmlns:xlink="http://www.w3.org/1999/xlink" x="0px" y="0px"
	 viewBox="0 0 512 512" style="enable-background:new 0 0 512 512;" xml:space="preserve">
<path style="fill:#FFD9D4;" d="M146.902,274.014v69.088c0,5.096-4.404,11.204-9.237,12.816l-66.657,22.219
	c-3.108,1.036-5.204,3.945-5.204,7.221v32.093c0,4.205,3.408,7.611,7.611,7.611s7.611-3.407,7.611-7.611v-26.608l61.453-20.484
	c11.016-3.673,19.646-15.646,19.646-27.257v-69.088H146.902z"/>
<g>
	<rect x="215.984" y="296.848" style="fill:#FFB4A9;" width="15.223" height="159.334"/>
	<path style="fill:#FFB4A9;" d="M261.074,114.172c-4.204,0-7.611,3.407-7.611,7.611v38.057c0,12.59-10.243,22.834-22.834,22.834
		h-45.669v15.223h45.669c20.985,0,38.057-17.072,38.057-38.057v-38.057C268.686,117.579,265.279,114.172,261.074,114.172z"/>
</g>
<path style="fill:#FFD9D4;" d="M139.29,134.47c-46.167,0-83.726-37.56-83.726-83.726c0-4.205-3.408-7.611-7.611-7.611
	s-7.611,3.407-7.611,7.611c0,54.561,44.388,98.949,98.949,98.949h45.669V134.47H139.29z"/>
<g>
	<path style="fill:#4F4F4F;" d="M31.715,479.017v25.372c0,4.205,3.408,7.611,7.611,7.611s7.611-3.407,7.611-7.611v-25.372H31.715z"
		/>
	<polygon style="fill:#4F4F4F;" points="454.651,418.118 393.789,387.679 430.893,466.899 458.831,448.571 	"/>
</g>
<polygon style="fill:#696969;" points="424.235,418.125 393.277,387.679 362.088,418.158 373.724,504.389 430.893,466.899 "/>
<polygon style="fill:#B3B3B3;" points="428.385,225.3 352.27,210.077 424.235,418.125 454.651,418.118 "/>
<polygon style="fill:#CCCCCC;" points="397.939,225.3 352.27,210.077 335.667,225.3 362.088,418.158 424.235,418.125 "/>
<path style="fill:#4F4F4F;" d="M503.734,128.421c-5.937-5.947-15.578-5.947-21.525,0l-66.433,66.433h-49.662
	c-16.745,0-30.446,13.701-30.446,30.446h92.723l75.344-75.354C509.681,144.01,509.681,134.368,503.734,128.421z"/>
<polygon style="fill:#B3B3B3;" points="366.113,448.571 386.41,489.166 341.202,489.166 315.37,468.868 335.667,448.571 "/>
<path style="fill:#353535;" d="M477.748,448.571l-20.297,55.818h30.446c11.214,0,20.297-9.083,20.297-20.297v-35.52H477.748z"/>
<path style="fill:#4F4F4F;" d="M366.113,448.571l7.611,55.818h83.726c11.214,0,20.297-9.083,20.297-20.297v-35.52H366.113z"/>
<path style="fill:#CCCCCC;" d="M24.103,448.571c-11.214,0-20.297,9.083-20.297,20.297s9.083,20.297,20.297,20.297h317.099
	l-5.535-40.595H24.103z"/>
<path style="fill:#9DB55F;" d="M230.628,228.345l-53.28-22.835l22.834,68.503v30.446h45.669V268.6
	C245.851,253.162,240.096,239.077,230.628,228.345z"/>
<path style="fill:#B9D171;" d="M139.29,228.345c-9.468,10.732-15.223,24.818-15.223,40.255v35.86h45.669v-30.446h30.446V205.51
	L139.29,228.345z"/>
<polygon style="fill:#FFB4A9;" points="230.628,228.345 200.182,228.345 169.736,167.453 230.628,197.899 "/>
<polygon style="fill:#FFD9D4;" points="200.182,228.345 139.29,228.345 139.29,197.899 200.182,167.453 "/>
<path style="fill:#4F4F4F;" d="M210.331,121.784h-30.446l20.297,76.115h30.446v-55.818
	C230.628,130.871,221.541,121.784,210.331,121.784z"/>
<path style="fill:#696969;" d="M179.885,121.784h-20.297c-11.21,0-20.297,9.087-20.297,20.297v55.818h60.892v-55.818
	C200.182,130.871,191.095,121.784,179.885,121.784z"/>
<path style="fill:#E18F4E;" d="M118.993,106.561c11.21,0,20.297-9.087,20.297-20.297V45.669c-22.419,0-40.595,18.175-40.595,40.595
	C98.696,97.474,107.783,106.561,118.993,106.561z"/>
<path style="fill:#FFB4A9;" d="M212.361,9.134h-27.401v82.204c25.219,0,45.669-20.45,45.669-45.669
	C230.628,30.73,223.453,17.456,212.361,9.134z"/>
<path style="fill:#FFD9D4;" d="M198.356,23.991c1.167,6.455,1.827,13.833,1.827,21.678c0,25.219-6.82,45.669-15.223,45.669
	c-25.219,0-45.669-20.45-45.669-45.669L198.356,23.991z"/>
<path style="fill:#C27749;" d="M212.361,9.134c-4.1,5.46-8.799,10.443-14.005,14.858L184.959,0C195.23,0,204.729,3.4,212.361,9.134z
	"/>
<path style="fill:#E18F4E;" d="M139.29,45.669C139.29,20.45,159.74,0,184.959,0c5.785,0,10.829,9.702,13.396,23.991
	C182.432,37.509,161.81,45.669,139.29,45.669z"/>
<g>
</g>
<g>
</g>
<g>
</g>
<g>
</g>
<g>
</g>
<g>
</g>
<g>
</g>
<g>
</g>
<g>
</g>
<g>
</g>
<g>
</g>
<g>
</g>
<g>
</g>
<g>
</g>
<g>
</g>
</svg>
