<?xml version="1.0" encoding="iso-8859-1"?>
<!-- Generator: Adobe Illustrator 21.0.0, SVG Export Plug-In . SVG Version: 6.00 Build 0)  -->
<svg xmlns="http://www.w3.org/2000/svg" xmlns:xlink="http://www.w3.org/1999/xlink" version="1.1" id="Capa_1" x="0px" y="0px" viewBox="0 0 512.001 512.001" style="enable-background:new 0 0 512.001 512.001;" xml:space="preserve" width="512" height="512">
<g>
	<polygon style="fill:#FFCA28;" points="163.534,51.541 163.428,308.958 194.848,308.958 194.742,51.541  "/>
	<path style="fill:#42A5F5;" d="M179.139,356.558L179.139,356.558c6.721,0,13.287,0.843,19.594,2.417v-47.307   c0-1.497-1.213-2.71-2.71-2.71h-33.768c-1.497,0-2.71,1.213-2.71,2.71v47.307C165.851,357.4,172.417,356.558,179.139,356.558z"/>
	<path style="fill:#1976D2;" d="M178.732,308.958v19.049c0,5.467-4.755,9.743-10.184,9.106c-2.963-0.348-5.967-0.534-9.004-0.549   v22.411c6.307-1.575,12.873-2.418,19.595-2.418h0c6.721,0,13.287,0.843,19.594,2.417v-47.307c0-1.497-1.213-2.71-2.71-2.71H178.732   z"/>
	<path style="fill:#66BB6A;" d="M421.438,290.742c-1.42-1.55-3.426-2.433-5.529-2.433h-73.018c-4.142,0-7.5,3.357-7.5,7.5   c0,7.64-6.215,13.855-13.855,13.855s-13.855-6.216-13.855-13.855c0-4.143-3.358-7.5-7.5-7.5h-73.018   c-2.103,0-4.108,0.883-5.529,2.433s-2.125,3.624-1.943,5.719l7.197,82.544c0.161,1.845,0.998,3.563,2.351,4.828   c7.089,6.626,12.854,14.709,16.829,23.558c-3.37,0.736-5.892,3.737-5.892,7.327v24.64c0,21.051,7.523,41.568,20.905,57.643H245.36   c-4.142,0-7.5,3.357-7.5,7.5s3.358,7.5,7.5,7.5h152.354c3.89,0,7.134-2.974,7.472-6.849l18.195-208.69   C423.564,294.366,422.859,292.292,421.438,290.742z"/>
	<path style="fill:#388E3C;" d="M419.42,289.176c-1.133-0.609-2.423-0.867-3.709-0.867h-33.363l-14.347,164.555   C366.07,475.007,347.532,492,325.304,492h-68.069c1.227,1.705,2.499,3.381,3.847,5h-15.408c-4.107,0-7.688,3.165-7.811,7.27   c-0.127,4.247,3.278,7.73,7.497,7.73h152.354c3.89,0,7.134-2.974,7.472-6.849l18.195-208.69   C423.636,293.535,422.159,290.649,419.42,289.176z"/>
	<path style="fill:#FFECB3;" d="M278.222,493.429c-14.646-14.062-23.045-33.77-23.045-54.072v-24.639c0-4.143-3.358-7.5-7.5-7.5   H110.6c-4.142,0-7.5,3.357-7.5,7.5V442.4c0,18.368-7.599,36.199-20.851,48.921l-2.194,2.107c-3.194,3.066-4.19,7.702-2.538,11.81   C79.17,509.346,83.099,512,87.527,512H270.75c4.427,0,8.356-2.654,10.009-6.762S281.416,496.496,278.222,493.429z"/>
	<path style="fill:#FFD54F;" d="M278.222,493.429c-14.646-14.062-23.045-33.77-23.045-54.072v-24.639c0-4.142-3.358-7.5-7.5-7.5   h-32.5v7.566l-0.032-0.066c-4.139,23.96-2.416,47.947,4.138,67.805c1.539,4.664-1.862,9.478-6.773,9.478l-6.497,0   c-1.201,0-2.227-0.877-2.396-2.066c-1.946-13.641-3.047-31.005-3.058-48.897c-0.003-4.089-3.172-7.646-7.259-7.774   c-4.252-0.133-7.741,3.274-7.741,7.496c0,17.468,1.015,34.561,2.833,48.519c0.188,1.446-0.944,2.722-2.402,2.722h-13.655   c-1.462,0-2.593-1.28-2.4-2.729c1.773-13.324,2.769-29.737,2.783-46.523c0.003-4.123-3.159-7.726-7.28-7.844   c-4.243-0.122-7.72,3.281-7.72,7.497c0,17.443-1.089,34.375-3.019,47.518c-0.175,1.194-1.192,2.082-2.398,2.082l-13.141,0   c-1.718,0-2.885-1.733-2.239-3.324c5.454-13.414,8.411-29.268,8.452-45.926c0.01-4.129-3.171-7.739-7.3-7.846   c-4.233-0.11-7.7,3.288-7.7,7.497c0,18.073-3.997,35.519-11.008,48.359c-0.421,0.772-1.241,1.241-2.12,1.241H81.543l-1.263,1.213   c-3.009,2.89-4.306,7.24-3.051,11.219c1.44,4.563,5.586,7.568,10.298,7.568h32.422c0.005,0,0.01,0.001,0.015,0.001   c0.005,0,0.01-0.001,0.015-0.001h39.789c0.007,0,0.015,0.001,0.022,0.001c0.007,0,0.015-0.001,0.022-0.001h38.65   c0.007,0,0.015,0.001,0.022,0.001c0.007,0,0.015-0.001,0.022-0.001h39.791c0.005,0,0.01,0.001,0.015,0.001   c0.005,0,0.01-0.001,0.015-0.001l32.108,0c4.173,0,8.124-2.24,9.974-5.981C282.53,501.73,281.621,496.692,278.222,493.429z"/>
	<path style="fill:#42A5F5;" d="M261.633,405.766c-6.397-16.696-17.571-30.9-32.313-41.075   c-14.818-10.228-32.17-15.633-50.181-15.633s-35.362,5.406-50.18,15.633c-14.743,10.175-25.917,24.379-32.314,41.075   c-1.427,3.725-0.929,7.911,1.333,11.199c2.262,3.289,5.994,5.253,9.983,5.253h142.355c3.989,0,7.722-1.964,9.983-5.253   C262.561,413.677,263.06,409.49,261.633,405.766z"/>
	<path style="fill:#1976D2;" d="M261.633,405.766c-6.397-16.696-17.571-30.9-32.313-41.075c-9.732-6.717-20.56-11.338-31.946-13.73   c10.785,9.43,19.086,21.302,24.26,34.806c1.427,3.725,0.929,7.911-1.333,11.199c-2.262,3.289-5.994,5.253-9.983,5.253H98.1   c-0.507,1.171-0.997,2.351-1.456,3.548c-1.427,3.725-0.929,7.911,1.333,11.199c2.262,3.289,5.994,5.253,9.983,5.253h142.355   c3.989,0,7.722-1.964,9.983-5.253C262.561,413.677,263.06,409.49,261.633,405.766z"/>
	<path style="fill:#42A5F5;" d="M200.11,5.119C196.84,1.818,192.479,0,187.832,0h-17.389c-4.647,0-9.007,1.818-12.277,5.119   c-3.271,3.302-5.047,7.679-5.003,12.326l0.304,32.016c0.05,5.282,4.388,9.58,9.67,9.58h32.002c5.282,0,9.62-4.298,9.67-9.579   l0.304-32.017c0,0,0,0,0-0.001C205.157,12.798,203.38,8.421,200.11,5.119z"/>
	<path style="fill:#1976D2;" d="M200.11,5.119C196.84,1.818,192.479,0,187.832,0h-2.743l-0.279,29.462   c-0.05,5.281-4.388,9.579-9.67,9.579h-21.772l0.099,10.42c0.05,5.282,4.388,9.58,9.67,9.58h32.002c5.282,0,9.62-4.298,9.67-9.579   l0.304-32.017c0,0,0,0,0-0.001C205.157,12.798,203.38,8.421,200.11,5.119z"/>
	<path style="fill:#BBDEFB;" d="M408.071,248.5c0.461-1.47,0.739-3.013,0.793-4.601c0.342-10.03-7.688-18.269-17.642-18.269h-0.016   c-0.931,0.001-1.801-0.462-2.266-1.269c-5.828-10.117-16.744-16.932-29.259-16.932c-3.212,0-6.319,0.45-9.262,1.288   c-1.309,0.373-2.684-0.369-3.096-1.666c-3.854-12.122-15.195-20.907-28.594-20.907c-13.415,0-24.773,8.803-28.615,20.947   c-0.298,0.942-1.109,1.634-2.09,1.758c-12.712,1.609-23.443,9.556-28.927,20.58c-0.466,0.937-1.455,1.471-2.499,1.401   c-1.234-0.082-2.497-0.059-3.782,0.082c-9.458,1.039-17.051,8.376-18.618,17.585H408.071z"/>
	<circle style="fill:#BBDEFB;" cx="371.034" cy="172.497" r="13.648"/>
	<circle style="fill:#BBDEFB;" cx="337.593" cy="143.056" r="11.504"/>
	<path style="fill:#66BB6A;" d="M421.322,248.5H221.752c-7.691,0-13.949,6.258-13.949,13.949v26.911   c0,7.691,6.258,13.949,13.949,13.949h71.918c3.31,12.287,14.549,21.355,27.867,21.355s24.557-9.068,27.867-21.355h71.918   c7.691,0,13.949-6.258,13.949-13.949v-26.911C435.271,254.758,429.013,248.5,421.322,248.5z"/>
	<path style="fill:#388E3C;" d="M421.322,248.5h-26.051v20.86c0,7.691-6.258,13.949-13.949,13.949H207.803v6.051   c0,7.691,6.258,13.949,13.949,13.949h71.918c3.31,12.287,14.549,21.355,27.867,21.355s24.557-9.068,27.867-21.355h71.918   c7.691,0,13.949-6.258,13.949-13.949v-26.911C435.271,254.758,429.013,248.5,421.322,248.5z"/>
	<g>
		<path style="fill:#EEEEEE;" d="M424.776,410.699c-1.909,0-3.819-0.725-5.281-2.175l-103.239-102.39    c-2.941-2.917-2.961-7.665-0.044-10.606c2.917-2.94,7.667-2.959,10.606-0.044l103.239,102.39    c2.941,2.917,2.961,7.666,0.044,10.606C428.635,409.959,426.706,410.699,424.776,410.699z"/>
	</g>
</g>















</svg>
