<?xml version="1.0" encoding="iso-8859-1"?>
<!-- Generator: Adobe Illustrator 19.0.0, SVG Export Plug-In . SVG Version: 6.00 Build 0)  -->
<svg version="1.1" id="Layer_1" xmlns="http://www.w3.org/2000/svg" xmlns:xlink="http://www.w3.org/1999/xlink" x="0px" y="0px"
	 viewBox="0 0 314.54 314.54" style="enable-background:new 0 0 314.54 314.54;" xml:space="preserve">
<g>
	<rect x="4.155" style="fill:#99DAEA;" width="306.229" height="314.54"/>
	<rect x="57.662" y="56.109" style="fill:#333E48;" width="199.215" height="258.431"/>
	<rect x="66.169" y="64.616" style="fill:#A4A9AD;" width="182.199" height="249.924"/>
	<rect x="154.189" y="64.616" style="fill:#5C6670;" width="6.162" height="249.924"/>
	<g>
		<rect x="130.051" y="9.166" style="fill:#333E48;" width="54.438" height="38.412"/>
		<g>
			<path style="fill:#FFFFFF;" d="M156.531,20.545h-0.072l-4.083,2.204l-0.614-2.421l5.131-2.746h2.71v23.486h-3.071L156.531,20.545
				L156.531,20.545z"/>
		</g>
	</g>
	<g>
		<rect x="266.169" y="151.436" style="fill:#5C6670;" width="32.328" height="68.628"/>
		<path style="fill:#FFFFFF;" d="M284.308,163.099c-1.086-1.612-2.864-1.612-3.949,0l-8.222,12.2
			c-1.086,1.611-0.385,2.93,1.559,2.93h17.274c1.944,0,2.645-1.319,1.56-2.93L284.308,163.099z"/>
		<path style="fill:#FFFFFF;" d="M284.308,208.4c-1.086,1.612-2.864,1.612-3.949,0l-8.222-12.2
			c-1.086-1.611-0.385-2.931,1.559-2.931h17.274c1.944,0,2.645,1.319,1.56,2.931L284.308,208.4z"/>
	</g>
</g>
<g>
</g>
<g>
</g>
<g>
</g>
<g>
</g>
<g>
</g>
<g>
</g>
<g>
</g>
<g>
</g>
<g>
</g>
<g>
</g>
<g>
</g>
<g>
</g>
<g>
</g>
<g>
</g>
<g>
</g>
</svg>
