<svg id="Capa_1" enable-background="new 0 0 512 512" height="512" viewBox="0 0 512 512" width="512" xmlns="http://www.w3.org/2000/svg"><g clip-rule="evenodd" fill-rule="evenodd"><path d="m198.977 512h114.046c2.829 0 5.134-2.336 5.134-5.169v-100.835l-57.49-31.334-66.824 31.334v100.835c0 2.833 2.305 5.169 5.134 5.169z" fill="#9b8e99"/><path d="m318.157 506.831v-100.835c-4.317 1.372-8.663 2.57-13.096 3.65-5.309 1.285-10.705 2.365-16.188 3.241v93.943c0 2.833-2.304 5.169-5.134 5.169h29.285c2.828.001 5.133-2.335 5.133-5.168z" fill="#595959"/><path d="m48.5 207.744c0 97.798 67.494 179.826 158.44 201.903 15.721 3.825 32.143 5.84 49.06 5.84 16.888 0 33.339-2.015 49.06-5.84 90.916-22.077 158.44-104.106 158.44-201.903 0-114.735-92.9-207.744-207.5-207.744s-207.5 93.009-207.5 207.744z" fill="#f0eef0"/><path d="m329.649 57.879c55.186 27.246 93.133 84.102 93.133 149.865 0 59.455-31.035 111.64-77.761 141.221-11.696 13.696-25.143 25.902-39.96 36.24-17.705 12.353-37.393 22.048-58.482 28.53-1.458.467-2.917.876-4.375 1.314 4.579.292 9.159.438 13.796.438 16.888 0 33.339-2.015 49.06-5.84 90.916-22.077 158.44-104.106 158.44-201.903 0-114.735-92.9-207.744-207.5-207.744-12.163 0-24.063 1.022-35.643 3.037 41.943 7.213 79.686 26.778 109.292 54.842z" fill="#d7d0d6"/><path d="m89.218 207.744c0 75.108 49.556 138.651 117.721 159.619 15.488 4.789 31.968 7.359 49.06 7.359 17.063 0 33.543-2.57 49.06-7.359 68.165-20.967 117.721-84.511 117.721-159.619 0-92.22-74.67-166.977-166.782-166.977s-166.78 74.756-166.78 166.977z" fill="#00c0fa"/><path d="m305.06 367.362c68.165-20.967 117.721-84.511 117.721-159.619 0-92.22-74.67-166.977-166.782-166.977-7.234 0-14.351.467-21.351 1.343 82.049 10.484 145.46 80.656 145.46 165.634 0 58.287-29.839 109.595-75.049 139.469-13.038 8.615-27.389 15.448-42.673 20.149-8.925 2.774-18.201 4.789-27.739 6.016 7 .876 14.117 1.343 21.351 1.343 17.065.001 33.545-2.569 49.062-7.358z" fill="#08a9f1"/><path d="m191.043 124.401v169.81c0 7.038 2.421 12.995 7.263 17.813 4.813 4.848 10.559 7.271 17.18 7.271 6.65 0 12.396-2.424 17.209-7.271 4.842-4.818 7.263-10.571 7.263-17.2v-49.264h36.81c22.313 0 40.222-6.687 53.698-20.091 13.505-13.404 20.242-30.954 20.242-52.71 0-21.96-7.146-39.802-21.438-53.498s-32.785-20.529-55.536-20.529h-57.344c-7.029 0-13.009 2.453-17.938 7.388s-7.409 11.039-7.409 18.281zm79.978 78.261h-23.83c-4.521 0-7.234.642-7.234-4.001v-52.739c0-3.387 1.517-3.387 6.096-3.387h25.289c8.225 0 15.138 2.979 20.651 8.907 5.542 5.957 8.313 13.141 8.313 21.61 0 8.06-2.917 15.01-8.75 20.85-5.834 5.84-12.688 8.76-20.535 8.76z" fill="#f0eef0"/><path d="m275.134 142.769c6.592.788 12.221 3.679 16.859 8.673 5.542 5.957 8.313 13.141 8.313 21.61 0 8.06-2.917 15.01-8.75 20.85-3.85 3.855-8.109 6.424-12.834 7.739-.963 15.214-3.354 29.932-7 43.92h5.046c22.313 0 40.222-6.687 53.698-20.091 13.505-13.404 20.242-30.954 20.242-52.71 0-21.96-7.146-39.802-21.438-53.498s-32.785-20.529-55.536-20.529h-11.755c5.776 13.724 10.238 28.5 13.155 44.036z" fill="#d7d0d6"/></g></svg>