<?xml version="1.0" encoding="iso-8859-1"?>
<!-- Generator: Adobe Illustrator 19.0.0, SVG Export Plug-In . SVG Version: 6.00 Build 0)  -->
<svg version="1.1" id="Capa_1" xmlns="http://www.w3.org/2000/svg" xmlns:xlink="http://www.w3.org/1999/xlink" x="0px" y="0px"
	 viewBox="0 0 512 512" style="enable-background:new 0 0 512 512;" xml:space="preserve">
<g>
	<path style="fill:#FE6C2B;" d="M9.934,57.922L9.934,57.922C4.448,57.922,0,62.37,0,67.857v64.027h19.868V67.857
		C19.868,62.37,15.421,57.922,9.934,57.922z"/>
	<path style="fill:#FE6C2B;" d="M74.403,57.922L74.403,57.922c-5.486,0-9.934,4.448-9.934,9.934v64.027h19.868V67.857
		C84.337,62.37,79.889,57.922,74.403,57.922z"/>
	<path style="fill:#FE6C2B;" d="M42.169,57.922L42.169,57.922c-5.486,0-9.934,4.448-9.934,9.934v64.027h19.868V67.857
		C52.103,62.37,47.655,57.922,42.169,57.922z"/>
</g>
<path style="fill:#FEC007;" d="M42.169,454.078c-17.602,0-31.383-16.478-29.73-35.53l14.118-204.01l2.709-39.217h25.808
	l2.709,39.217l14.118,204.01C73.552,437.599,59.771,454.078,42.169,454.078z"/>
<polygon style="fill:#FE9700;" points="57.782,214.537 26.556,214.537 29.265,175.32 55.073,175.32 "/>
<circle style="fill:#FB4239;" cx="248.17" cy="263.91" r="161.24"/>
<path style="fill:#E21717;" d="M248.168,401.85c-76.062,0-137.942-61.881-137.942-137.942s61.881-137.942,137.942-137.942
	c76.062,0,137.943,61.881,137.943,137.942S324.23,401.85,248.168,401.85z"/>
<circle style="fill:#CAEDFF;" cx="248.17" cy="263.91" r="121.08"/>
<path style="fill:#80CEF9;" d="M323.108,219.014c-2.43,0-4.821-1.143-6.325-3.282c-15.707-22.325-41.357-35.654-68.614-35.654
	c-4.267,0-7.726-3.459-7.726-7.726s3.459-7.726,7.726-7.726c32.28,0,62.654,15.782,81.251,42.215
	c2.456,3.49,1.617,8.31-1.873,10.765C326.195,218.557,324.644,219.014,323.108,219.014z"/>
<path style="fill:#2195F2;" d="M454.877,454.078c-17.602,0-31.383-15.781-29.73-34.047l14.837-205.573l1.99-27.527h25.808
	l1.99,27.527l14.837,205.573C486.259,438.296,472.479,454.078,454.877,454.078z"/>
<polygon style="fill:#006FAD;" points="469.77,214.458 469.365,214.537 440.377,214.537 439.983,214.458 441.973,186.931 
	467.781,186.931 "/>
<path style="fill:#50B8FF;" d="M454.877,57.922c-27.654,0-57.123,19.181-57.123,75.247s44.223,64.506,44.223,64.506h12.9h12.9
	c0,0,44.223-8.44,44.223-64.506S482.531,57.922,454.877,57.922z"/>
<path style="fill:#CAEDFF;" d="M454.877,84.947c-16.959,0-35.031,11.763-35.031,46.146c0,7.391,1.253,13.432,3.221,18.362
	c5.155,12.919,17.902,21.197,31.811,21.197l0,0l0,0c13.909,0,26.656-8.278,31.811-21.197c1.967-4.93,3.221-10.972,3.221-18.362
	C489.908,96.709,471.836,84.947,454.877,84.947z"/>
<path style="fill:#FEC007;" d="M42.169,117.531H0v30.324c0,18.938,9.466,36.623,25.225,47.125l4.043,2.694h12.9h12.9l4.043-2.694
	c15.759-10.503,25.225-28.187,25.225-47.125v-30.324H42.169z"/>
<g>
</g>
<g>
</g>
<g>
</g>
<g>
</g>
<g>
</g>
<g>
</g>
<g>
</g>
<g>
</g>
<g>
</g>
<g>
</g>
<g>
</g>
<g>
</g>
<g>
</g>
<g>
</g>
<g>
</g>
</svg>
