<svg id="Capa_1" enable-background="new 0 0 512 512" height="512" viewBox="0 0 512 512" width="512" xmlns="http://www.w3.org/2000/svg"><path d="m349.028 310.258c-10.944 0-19.817-8.869-19.821-19.813l-.034-90.579 19.838-22.689 19.805 22.689.034 90.563c.004 10.947-8.867 19.825-19.813 19.829-.004 0-.008 0-.009 0z" fill="#ffb69e"/><path d="m237.014 512c-13.279 0-24.045-10.765-24.045-24.045v-192.192c0-13.28 10.765-24.045 24.045-24.045 13.279 0 24.045 10.765 24.045 24.045v192.192c0 13.28-10.766 24.045-24.045 24.045z" fill="#3c698c"/><path d="m295.054 512c-13.279 0-24.045-10.765-24.045-24.045v-192.192c0-13.28 10.765-24.045 24.045-24.045 13.279 0 24.045 10.765 24.045 24.045v192.192c0 13.28-10.766 24.045-24.045 24.045z" fill="#194664"/><path d="m285.919 107.825-.666-4.085h-39.287l-.61 4.802c-1.554 12.246 7.989 23.077 20.333 23.077 12.636 0 22.263-11.323 20.23-23.794z" fill="#ffb69e"/><path d="m203.733 200.16-13.524-7.367 4.145-7.782-11.616-17.555-23.497-1.767-13.734 25.786c-5.168 9.703-1.553 21.757 8.101 27.016l50.125 27.304z" fill="#ffb69e"/><path d="m368.799 154.546c-.013-31.281-18.458-50.752-49.705-50.804v-.002h-.124-15.056-18.661c.378 10.547-9.421 19.501-19.651 19.501-10.964 0-19.09-8.921-19.635-19.501h-26.205c-16.978 0-32.483 9.309-40.465 24.294l-20.055 37.655 35.113 19.322 18.606-34.933v103.484l4.374 7.582-4.374 7.582v27.038h106.134v-27.038l-2.255-7.582 2.255-7.582v-110.175c5.573.019 10.332 4.057 10.062 11.174l.017 45.304h39.643z" fill="#64afff"/><path d="m307.448 168.086c.003-.106.015-.211.015-.317 0-.233-.007-.464-.015-.695v-16.194c0-1.927-1.562-3.489-3.489-3.489h-23.074c-1.927 0-3.489 1.562-3.489 3.489v16.195c-.008.23-.015.461-.015.694 0 .106.011.211.015.316v.412h.019c.54 7.288 8.983 14.229 12.962 17.114 1.222.886 2.867.886 4.089 0 3.979-2.885 12.422-9.826 12.962-17.114h.019v-.411z" fill="#ffc305"/><circle id="XMLID_23_" cx="266.295" cy="48.487" fill="#ffb69e" r="42.965"/><path d="m298.715 0-61.977 7.765c-7.405 0-13.407 6.003-13.407 13.407v22.474h88.792v-30.239c-.001-7.404-6.004-13.407-13.408-13.407z" fill="#194664"/><path d="m330.786 25.705h-31.781c-9.908 0-17.941 8.032-17.941 17.941h67.663c-.001-9.908-8.033-17.941-17.941-17.941z" fill="#194664"/><path d="m212.96 253.562h106.134v15.163h-106.134z" fill="#50555a"/><path d="m241.205 278.302-10.498-4.954 10.747-22.773c2.383-5.049.221-11.074-4.828-13.456-5.048-2.383-11.074-.221-13.456 4.828l-10.747 22.773-10.498-4.954c-5.049-2.383-11.074-.221-13.456 4.828-2.383 5.049-.221 11.074 4.828 13.456l10.498 4.954-41.858 88.696c-2.383 5.049-.221 11.074 4.828 13.456 5.027 2.373 11.063.243 13.456-4.828l41.858-88.697 10.498 4.954c5.027 2.373 11.063.243 13.456-4.828 2.383-5.048.221-11.073-4.828-13.455z" fill="#373c41"/><path d="m217.371 253.223-63.763-34.732c-9.718-5.294-13.305-17.463-8.011-27.181 5.293-9.719 17.464-13.305 27.181-8.011l63.763 34.732c9.718 5.294 13.305 17.463 8.011 27.181-5.277 9.686-17.434 13.32-27.181 8.011z" fill="#ffb69e"/></svg>