<svg id="Capa_1" enable-background="new 0 0 512 512" height="512" viewBox="0 0 512 512" width="512" xmlns="http://www.w3.org/2000/svg"><path d="m0 472.825h512v39.175h-512z" fill="#c0c7cf"/><path d="m24.137 0h463.727v472.853h-463.727z" fill="#67c6e4"/><path d="m24.137 0h185.677v471.823h-185.677z" fill="#baeefc"/><path d="m65.191 0h185.677v471.823h-185.677z" fill="#e2faff"/><path d="m24.137 0h41.054v471.823h-41.054z" fill="#e2faff"/><path d="m209.814 0h41.054v471.823h-41.054z" fill="#e2faff"/><path d="m65.191 0h144.623v471.823h-144.623z" fill="#baeefc"/><path d="m83.231 269.907h-18.04v-63.871h18.04c12.795 0 23.167 10.372 23.167 23.167v17.537c0 12.795-10.372 23.167-23.167 23.167z" fill="#67c6e4"/><path d="m375.501 0v65.932c0 4.267-3.459 7.726-7.726 7.726s-7.726-3.459-7.726-7.726v-65.932z" fill="#eed05e"/><path d="m425.98 101.988h-116.41c0-26.741 21.678-48.418 48.418-48.418h19.574c26.74-.001 48.418 21.677 48.418 48.418z" fill="#ffe582"/><g fill="#baeefc"><path d="m331.718 142.165c9.943 0 9.96-15.453 0-15.453-9.943 0-9.959 15.453 0 15.453z"/><path d="m367.775 142.165c9.943 0 9.96-15.453 0-15.453-9.943 0-9.96 15.453 0 15.453z"/><path d="m403.831 142.165c9.943 0 9.96-15.453 0-15.453-9.943 0-9.96 15.453 0 15.453z"/><path d="m331.718 180.282c9.943 0 9.96-15.453 0-15.453-9.943 0-9.959 15.453 0 15.453z"/><path d="m367.775 180.282c9.943 0 9.96-15.453 0-15.453-9.943 0-9.96 15.453 0 15.453z"/><path d="m403.831 180.282c9.943 0 9.96-15.453 0-15.453-9.943 0-9.96 15.453 0 15.453z"/><path d="m331.718 218.398c9.943 0 9.96-15.453 0-15.453-9.943.001-9.959 15.453 0 15.453z"/><path d="m367.775 218.398c9.943 0 9.96-15.453 0-15.453-9.943.001-9.96 15.453 0 15.453z"/><path d="m403.831 218.398c9.943 0 9.96-15.453 0-15.453-9.943.001-9.96 15.453 0 15.453z"/><path d="m331.718 256.515c9.943 0 9.96-15.453 0-15.453-9.943 0-9.959 15.453 0 15.453z"/><path d="m367.775 256.515c9.943 0 9.96-15.453 0-15.453-9.943 0-9.96 15.453 0 15.453z"/><path d="m403.831 256.515c9.943 0 9.96-15.453 0-15.453-9.943 0-9.96 15.453 0 15.453z"/><path d="m331.718 294.632c9.943 0 9.96-15.453 0-15.453-9.943 0-9.959 15.453 0 15.453z"/><path d="m367.775 294.632c9.943 0 9.96-15.453 0-15.453-9.943 0-9.96 15.453 0 15.453z"/><path d="m403.831 294.632c9.943 0 9.96-15.453 0-15.453-9.943 0-9.96 15.453 0 15.453z"/><path d="m331.718 332.749c9.943 0 9.96-15.453 0-15.453-9.943 0-9.959 15.453 0 15.453z"/><path d="m367.775 332.749c9.943 0 9.96-15.453 0-15.453-9.943 0-9.96 15.453 0 15.453z"/><path d="m403.831 332.749c9.943 0 9.96-15.453 0-15.453-9.943 0-9.96 15.453 0 15.453z"/><path d="m331.718 370.865c9.943 0 9.96-15.453 0-15.453-9.943 0-9.959 15.453 0 15.453z"/><path d="m367.775 370.865c9.943 0 9.96-15.453 0-15.453-9.943 0-9.96 15.453 0 15.453z"/><path d="m403.831 370.865c9.943 0 9.96-15.453 0-15.453-9.943 0-9.96 15.453 0 15.453z"/><path d="m331.718 408.982c9.943 0 9.96-15.453 0-15.453-9.943 0-9.959 15.453 0 15.453z"/><path d="m367.775 408.982c9.943 0 9.96-15.453 0-15.453-9.943 0-9.96 15.453 0 15.453z"/><path d="m403.831 408.982c9.943 0 9.96-15.453 0-15.453-9.943 0-9.96 15.453 0 15.453z"/><path d="m331.718 447.099c9.943 0 9.96-15.453 0-15.453-9.943 0-9.959 15.453 0 15.453z"/><path d="m367.775 447.099c9.943 0 9.96-15.453 0-15.453-9.943 0-9.96 15.453 0 15.453z"/><path d="m403.831 447.099c9.943 0 9.96-15.453 0-15.453-9.943 0-9.96 15.453 0 15.453z"/></g></svg>