<svg height="512pt" viewBox="-68 0 512 512" width="512pt" xmlns="http://www.w3.org/2000/svg"><path d="m358.886719 490.449219h-341.300781c-9.714844 0-17.585938-7.871094-17.585938-17.582031v-455.28125c0-9.714844 7.871094-17.585938 17.585938-17.585938h341.300781c9.710937 0 17.585937 7.871094 17.585937 17.585938v455.28125c0 9.710937-7.875 17.582031-17.585937 17.582031zm0 0" fill="#dadee4"/><path d="m358.886719 0h-22.414063v365c0 58.238281-47.214844 105.449219-105.453125 105.449219h-231.019531v2.417969c0 9.710937 7.871094 17.582031 17.585938 17.582031h341.300781c9.710937 0 17.585937-7.871094 17.585937-17.582031v-455.28125c0-9.714844-7.875-17.585938-17.585937-17.585938zm0 0" fill="#b4bcc9"/><path d="m376.472656 17.585938c0-9.714844-7.875-17.585938-17.585937-17.585938h-341.300781c-9.714844 0-17.585938 7.871094-17.585938 17.585938v74.027343h376.472656zm0 0" fill="#5f6c75"/><g fill="#dadee4"><path d="m181.878906 44.488281-8.871094-5.121093h-2.671874c-4.140626 0-7.5-3.359376-7.5-7.5 0-4.140626 3.359374-7.5 7.5-7.5h3.964843c1.78125 0 3.539063.472656 5.082031 1.359374l9.996094 5.773438c3.585938 2.070312 4.816406 6.65625 2.746094 10.246094-2.078125 3.597656-6.667969 4.808594-10.246094 2.742187zm0 0"/><path d="m174.300781 67.25h-3.964843c-4.140626 0-7.5-3.359375-7.5-7.5 0-4.144531 3.359374-7.5 7.5-7.5h2.671874l8.871094-5.125c3.585938-2.070312 8.175782-.839844 10.246094 2.746094 2.070312 3.585937.839844 8.175781-2.746094 10.246094l-9.992187 5.769531c-1.546875.890625-3.304688 1.363281-5.085938 1.363281zm0 0"/><path d="m158.667969 31.867188c0 3.460937-2.808594 6.269531-6.269531 6.269531-3.464844 0-6.269532-2.808594-6.269532-6.269531 0-3.464844 2.804688-6.269532 6.269532-6.269532 3.460937 0 6.269531 2.804688 6.269531 6.269532zm0 0"/><path d="m158.667969 59.75c0 3.460938-2.808594 6.269531-6.269531 6.269531-3.464844 0-6.269532-2.808593-6.269532-6.269531 0-3.464844 2.804688-6.273438 6.269532-6.273438 3.460937 0 6.269531 2.808594 6.269531 6.273438zm0 0"/><path d="m206.203125 41.746094c-2.074219-3.589844-.84375-8.175782 2.742187-10.246094l9.992188-5.769531c1.550781-.894531 3.308594-1.363281 5.085938-1.363281h3.964843c4.140625 0 7.5 3.359374 7.5 7.5 0 4.140624-3.359375 7.5-7.5 7.5h-2.671875l-8.871094 5.121093c-3.574218 2.066407-8.167968.855469-10.242187-2.742187zm0 0"/><path d="m227.988281 67.25h-3.964843c-1.777344 0-3.535157-.472656-5.082032-1.359375l-9.996094-5.773437c-3.585937-2.070313-4.816406-6.65625-2.742187-10.246094 2.066406-3.585938 6.65625-4.816406 10.242187-2.742188l8.871094 5.121094h2.671875c4.140625 0 7.5 3.355469 7.5 7.5 0 4.140625-3.359375 7.5-7.5 7.5zm0 0"/><path d="m252.199219 31.867188c0 3.460937-2.808594 6.269531-6.273438 6.269531-3.460937 0-6.269531-2.808594-6.269531-6.269531 0-3.464844 2.808594-6.269532 6.269531-6.269532 3.464844 0 6.273438 2.804688 6.273438 6.269532zm0 0"/><path d="m252.199219 59.75c0 3.460938-2.808594 6.269531-6.273438 6.269531-3.460937 0-6.269531-2.808593-6.269531-6.269531 0-3.464844 2.808594-6.273438 6.269531-6.273438 3.464844 0 6.273438 2.808594 6.273438 6.273438zm0 0"/></g><path d="m358.886719 0h-22.414063v14.609375c0 31.484375-25.523437 57.003906-57.007812 57.003906h-279.464844v20h376.472656v-74.027343c0-9.714844-7.875-17.585938-17.585937-17.585938zm0 0" fill="#4e5a61"/><path d="m269.644531 62.421875v-33.230469c0-1.910156 1.546875-3.457031 3.457031-3.457031h74.175782c1.910156 0 3.457031 1.546875 3.457031 3.457031v33.230469c0 1.910156-1.546875 3.457031-3.457031 3.457031h-74.175782c-1.910156 0-3.457031-1.546875-3.457031-3.457031zm0 0" fill="#d4e6f1"/><path d="m350.734375 62.421875v-33.230469c0-1.910156-1.546875-3.457031-3.453125-3.457031h-11.902344c-3.503906 17.703125-15.199218 32.457031-30.972656 40.144531h42.871094c1.910156 0 3.457031-1.546875 3.457031-3.457031zm0 0" fill="#a9cce3"/><path d="m129.308594 0h-111.722656c-9.714844 0-17.585938 7.871094-17.585938 17.585938v17.03125h129.308594zm0 0" fill="#dadee4"/><path d="m0 34.617188h129.308594v56.996093h-129.308594zm0 0" fill="#81b8fd"/><path d="m0 71.613281h129.308594v20h-129.308594zm0 0" fill="#62a6fd"/><path d="m78.214844 58.839844h-27.121094c-4.453125 0-8.351562-2.980469-9.527344-7.273438l-4.628906-16.949218h55.429688l-4.628907 16.949218c-1.171875 4.292969-5.070312 7.273438-9.523437 7.273438zm0 0" fill="#62a6fd"/><path d="m222.289062 45.808594c0 12.769531-10.355468 23.125-23.125 23.125-12.773437 0-23.128906-10.355469-23.128906-23.125 0-12.773438 10.355469-23.128906 23.128906-23.128906 12.769532 0 23.125 10.355468 23.125 23.128906zm0 0" fill="#81b8fd"/><path d="m204.1875 23.234375c4.957031 4.242187 8.101562 10.539063 8.101562 17.574219 0 14.785156-13.6875 25.78125-28.152343 22.570312 4.042969 3.460938 9.289062 5.554688 15.027343 5.554688 12.773438 0 23.125-10.351563 23.125-23.125 0-11.046875-7.746093-20.277344-18.101562-22.574219zm0 0" fill="#62a6fd"/><path d="m300.085938 255.652344c0 61.773437-50.078126 111.851562-111.851563 111.851562-61.769531 0-111.847656-50.078125-111.847656-111.851562 0-61.773438 50.078125-111.847656 111.847656-111.847656 61.773437 0 111.851563 50.074218 111.851563 111.847656zm0 0" fill="#5f6c75"/><path d="m234.386719 153.738281c21.957031 20.421875 35.699219 49.5625 35.699219 81.914063 0 61.773437-50.078126 111.851562-111.851563 111.851562-16.453125 0-32.078125-3.554687-46.148437-9.9375 19.96875 18.570313 46.730468 29.9375 76.148437 29.9375 61.773437 0 111.851563-50.078125 111.851563-111.851562 0-45.316406-26.953126-84.339844-65.699219-101.914063zm0 0" fill="#4e5a61"/><path d="m235.820312 232.027344v47.25c0 5.03125 3.472657 9.398437 8.375 10.535156l46.496094 10.765625c12.523438-28.523437 12.542969-61.277344 0-89.847656l-46.496094 10.765625c-4.902343 1.132812-8.375 5.5-8.375 10.53125zm0 0" fill="#8f9bae"/><path d="m290.683594 210.730469-22.34375 5.171875c4.515625 25.335937.398437 52.507812-13.617188 76.347656l35.96875 8.328125c.175782-.488281 2.585938-5.566406 4.886719-13.410156 7.207031-24.578125 5.90625-51.8125-4.894531-76.4375zm0 0" fill="#5f6c75"/><path d="m244.195312 289.8125c-4.902343-1.136719-8.375-5.503906-8.375-10.535156v-47.25c0-5.03125 3.472657-9.398438 8.375-10.53125l5.007813-1.160156c-12.199219-21.011719-34.925781-35.148438-60.96875-35.148438-38.914063 0-70.464844 31.546875-70.464844 70.464844 0 38.917968 31.550781 70.464844 70.464844 70.464844 26.042969 0 48.769531-14.136719 60.96875-35.144532zm0 0" fill="#d4e6f1"/><path d="m235.820312 279.277344v-47.25c0-5.03125 3.472657-9.398438 8.375-10.53125l5.007813-1.160156c-10.628906-18.304688-29.25-31.390626-51.089844-34.457032 12.71875 12.746094 20.585938 30.339844 20.585938 49.773438 0 42.878906-37.917969 75.730468-80.339844 69.773437 12.753906 12.78125 30.390625 20.691407 49.875 20.691407 26.042969 0 48.769531-14.136719 60.964844-35.144532l-5.007813-1.160156c-4.898437-1.136719-8.371094-5.503906-8.371094-10.535156zm0 0" fill="#a9cce3"/><path d="m341.09375 387.875h-79.445312c-2.757813 0-4.992188 2.230469-4.992188 4.988281v62.210938c0 2.753906 2.234375 4.988281 4.992188 4.988281h79.445312c2.753906 0 4.992188-2.234375 4.992188-4.988281v-62.210938c-.003907-2.757812-2.238282-4.988281-4.992188-4.988281zm0 0" fill="#81b8fd"/><path d="m341.09375 387.875h-35.011719v21.382812c0 17.015626-13.789062 30.804688-30.804687 30.804688h-18.621094v15.011719c0 2.753906 2.234375 4.988281 4.992188 4.988281h79.445312c2.757812 0 4.992188-2.234375 4.992188-4.988281v-62.210938c-.003907-2.757812-2.238282-4.988281-4.992188-4.988281zm0 0" fill="#62a6fd"/><path d="m308.75 406.75h-14.757812c-3 0-5.628907-2.007812-6.421876-4.898438l-3.832031-13.976562h35.261719l-3.828125 13.976562c-.792969 2.890626-3.421875 4.898438-6.421875 4.898438zm0 0" fill="#62a6fd"/><path d="m308.75 406.75c3 0 5.628906-2.007812 6.421875-4.898438l3.828125-13.976562h-12.917969v18.875zm0 0" fill="#1f608b"/><path d="m53.792969 512h-14.601563c-2.15625 0-4.007812-1.546875-4.390625-3.667969l-3.230469-17.882812h29.839844l-3.226562 17.882812c-.386719 2.121094-2.234375 3.667969-4.390625 3.667969zm0 0" fill="#5f6c75"/><path d="m322.679688 512h14.601562c2.15625 0 4.003906-1.546875 4.390625-3.667969l3.226563-17.882812h-29.839844l3.230468 17.882812c.382813 2.121094 2.234376 3.667969 4.390626 3.667969zm0 0" fill="#5f6c75"/><path d="m208.941406 262.652344c-20.710937 0-20.710937-14-41.425781-14-20.710937 0-20.710937 14-41.425781 14-3.097656 0-5.726563-.316406-8.035156-.851563 3.117187 36.035157 33.335937 64.316407 70.179687 64.316407 26.042969 0 48.769531-14.136719 60.964844-35.148438l-5.007813-1.160156c-4.902344-1.132813-8.371094-5.5-8.371094-10.53125v-27.40625c-8.160156 4.132812-12.601562 10.78125-26.878906 10.78125zm0 0" fill="#a0cafe"/><path d="m235.820312 279.277344v-27.40625c-7.234374 3.664062-11.550781 9.304687-22.390624 10.535156-11.964844 29.117188-42.34375 47.605469-75.050782 43.023438 32.601563 32.671874 87.503906 25.707031 110.824219-14.457032l-5.007813-1.160156c-4.902343-1.136719-8.375-5.503906-8.375-10.535156zm0 0" fill="#81b8fd"/><path d="m271.792969 277.90625-12.339844-2.855469c-3.402344-.789062-5.808594-3.816406-5.808594-7.308593v-24.179688c0-3.488281 2.40625-6.519531 5.808594-7.304688l12.335937-2.859374c4.035157-.933594 8.066407 1.582031 9 5.617187.9375 4.035156-1.578124 8.0625-5.613281 8.996094l-6.53125 1.515625v12.253906l6.527344 1.511719c4.039063.933593 6.550781 4.960937 5.617187 8.996093-.933593 4.039063-4.964843 6.550782-8.996093 5.617188zm0 0" fill="#5f6c75"/><path d="m269.246094 249.386719 5.929687-1.375c4.035157-.933594 6.546875-4.960938 5.613281-9-.933593-4.035157-4.960937-6.546875-9-5.613281l-1.722656.398437c.085938 5.1875-.183594 10.394531-.820312 15.589844zm0 0" fill="#4e5a61"/><path d="m273.488281 278.101562c3.414063 0 6.5-2.34375 7.300781-5.8125.933594-4.035156-1.578124-8.0625-5.613281-8.996093l-6.53125-1.511719v-8.179688c-1.210937 7.496094-3.195312 14.933594-5.988281 22.1875 10 2.316407 9.691406 2.3125 10.832031 2.3125zm0 0" fill="#4e5a61"/><path d="m91.070312 456.597656h-31.9375c-4.140624 0-7.5-3.359375-7.5-7.5s3.359376-7.5 7.5-7.5h31.9375c4.140626 0 7.5 3.359375 7.5 7.5s-3.359374 7.5-7.5 7.5zm0 0" fill="#b4bcc9"/><path d="m105.613281 431.46875h-61.023437c-4.140625 0-7.5-3.359375-7.5-7.5 0-4.144531 3.359375-7.5 7.5-7.5h61.023437c4.140625 0 7.5 3.355469 7.5 7.5 0 4.140625-3.359375 7.5-7.5 7.5zm0 0" fill="#b4bcc9"/></svg>