<?xml version="1.0" encoding="iso-8859-1"?>
<!-- Generator: Adobe Illustrator 19.0.0, SVG Export Plug-In . SVG Version: 6.00 Build 0)  -->
<svg version="1.1" id="Capa_1" xmlns="http://www.w3.org/2000/svg" xmlns:xlink="http://www.w3.org/1999/xlink" x="0px" y="0px"
	 viewBox="0 0 512 512" style="enable-background:new 0 0 512 512;" xml:space="preserve">
<path style="fill:#ADACB2;" d="M301,436c0,41.353-33.647,76-75,76h-61c-57.891,0-105-48.109-105-106V286c0-19.773,30-19.854,30,0
	v120c0,41.353,33.647,76,75,76h61c24.814,0,45-21.186,45-46c0-8.291,6.709-15,15-15S301,427.709,301,436z"/>
<path style="fill:#8A8891;" d="M406,512c-8.291,0-15-6.709-15-15v-61c0-8.291,6.709-15,15-15s15,6.709,15,15v61
	C421,505.291,414.291,512,406,512z"/>
<path style="fill:#605E66;" d="M406,451c-24.814,0-45-20.186-45-45v-30c0-8.291,6.709-15,15-15h60c8.291,0,15,6.709,15,15v30
	C451,430.814,430.814,451,406,451z"/>
<path style="fill:#7A7780;" d="M286,451c-24.814,0-45-20.186-45-45v-30c0-8.291,6.709-15,15-15h60c8.291,0,15,6.709,15,15v30
	C331,430.814,310.814,451,286,451z"/>
<path style="fill:#ADACB2;" d="M256.3,0c-5.372,0-10.129,3.114-15.3,5.7c-39.923,19.941-61,56.65-61,94.799v190
	c0,38.443,21.276,74.919,61,94.801c4.939,2.469,10.039,5.7,15,5.7c9.126,0,15-7.564,15-15V15C271,7.643,265.066,0,256.3,0z"/>
<path style="fill:#8A8891;" d="M451,5.7c-5.172-2.586-9.928-5.7-15.3-5.7C426.934,0,421,7.643,421,15v361c0,7.436,5.874,15,15,15
	c4.961,0,10.061-3.231,15-5.7c39.56-19.8,61-56.192,61-94.801v-190C512,62.588,491.146,25.753,451,5.7z"/>
<path style="fill:#E0E4EC;" d="M435.7,0H256.3c-5.4,0-10.501,3.3-15.3,5.7v379.6c4.501,2.401,9.901,5.7,15,5.7h180
	c5.099,0,10.499-3.3,15-5.7V5.7C446.201,3.3,441.099,0,435.7,0z"/>
<path style="fill:#D1D7E3;" d="M451,5.7v379.6c-4.501,2.401-9.901,5.7-15,5.7h-90V0h89.7C441.099,0,446.201,3.3,451,5.7z"/>
<g>
	<path style="fill:#ADACB2;" d="M361,150h-30c-19.799,0-19.799-30,0-30h30C380.799,120,380.799,150,361,150z"/>
	<path style="fill:#ADACB2;" d="M361,90h-30c-19.799,0-19.799-30,0-30h30C380.799,60,380.799,90,361,90z"/>
</g>
<path style="fill:#D1D7E3;" d="M75,301c-24.814,0-45-20.186-45-45v-31c0-8.291,6.709-15,15-15h60c8.291,0,15,6.709,15,15v31
	C120,280.814,99.814,301,75,301z"/>
<path style="fill:#E0E4EC;" d="M120,241H30V126.899c0-11.531,12.553-18.819,22.588-12.949c13.301,7.793,31.523,7.793,44.824,0
	c10.035-5.806,22.588,1.403,22.588,12.949V241z"/>
<path style="fill:#8A8891;" d="M75,15c-33.091,0-60,26.909-60,60c0,32.819,26.277,59.795,60.015,59.795
	C108.278,134.795,135,108.174,135,75C135,41.909,108.091,15,75,15z"/>
<circle style="fill:#E0E4EC;" cx="75" cy="75" r="15"/>
<path style="fill:#FF0536;" d="M391,256v30c0,24.899-20.099,45-45,45s-45-20.101-45-45v-30l15-15h57.599L391,256z"/>
<g>
	<path style="fill:#8A8891;" d="M361,150h-15v-30h15C380.799,120,380.799,150,361,150z"/>
	<path style="fill:#8A8891;" d="M361,90h-15V60h15C380.799,60,380.799,90,361,90z"/>
</g>
<path style="fill:#C10019;" d="M391,256v30c0,24.899-20.099,45-45,45v-90h27.599L391,256z"/>
<path style="fill:#00A5FF;" d="M391,225v31h-90v-31c0-24.901,20.099-45,45-45S391,200.099,391,225z"/>
<path style="fill:#0088FF;" d="M391,225v31h-45v-76C370.901,180,391,200.099,391,225z"/>
<path style="fill:#ADACB2;" d="M75,150c-40.33,0-75-32.512-75-75C0,33.647,33.647,0,75,0s75,33.647,75,75
	C150,117.956,114.79,150,75,150z M75,30c-24.814,0-45,20.186-45,45c0,16.143,8.437,30.703,22.559,38.95
	c13.359,7.793,31.553,7.793,44.854,0C111.562,105.703,120,91.143,120,75C120,50.186,99.814,30,75,30z"/>
<g>
</g>
<g>
</g>
<g>
</g>
<g>
</g>
<g>
</g>
<g>
</g>
<g>
</g>
<g>
</g>
<g>
</g>
<g>
</g>
<g>
</g>
<g>
</g>
<g>
</g>
<g>
</g>
<g>
</g>
</svg>
